<svg width="16" height="13" viewBox="0 0 16 13" fill="none" xmlns="http://www.w3.org/2000/svg">
<g clip-path="url(#clip0_197_2353)">
<path d="M1.4248 4.47485L3.13672 6.04126V11.5032H1.09082C0.764676 11.5031 0.500092 11.2392 0.5 10.9124V3.95142L1.4248 4.47485Z" fill="#4285F4" stroke="#A85A01"/>
<path d="M12.3638 12.0031H14.9092C15.5129 12.0031 16.0001 11.514 16.0001 10.9122V3.09407L14.0529 4.20888L12.3638 5.82126V12.0031Z" fill="#34A853"/>
<path d="M3.63636 5.82124L3.37549 3.40581L3.63636 1.09399L7.99999 4.36674L12.3636 1.09399L12.6554 3.28099L12.3636 5.82124L7.99999 9.09399L3.63636 5.82124Z" fill="#EA4335"/>
<path d="M12.3638 1.09401V5.82126L16.0001 3.09401V1.63945C16.0001 0.290386 14.4601 -0.478676 13.382 0.330386L12.3638 1.09401Z" fill="#FBBC04"/>
<path d="M0 3.09401L1.67244 4.34838L3.63637 5.82126V1.09401L2.61812 0.330384C1.53812 -0.478741 0 0.290384 0 1.63938V3.09401Z" fill="#C5221F"/>
</g>
<defs>
<clipPath id="clip0_197_2353">
<rect width="16" height="12.0625" fill="white"/>
</clipPath>
</defs>
</svg>
